# xmcd
#
# Track frame offsets:
#	150
#	23228
#	47450
#	72229
#	92429
#	113227
#	140121
#	165629
#	186465
#	209357
#
# Disc length: 3293 seconds
#
# Revision: 15
# Processed by: cddbd v1.5.2PL0 Copyright (c) Steve Scherf et al.
# Submitted via: EasyCDDAExtractor 15.3.0.1
#
DISCID=8c0cdb0a
DTITLE=Alejandro Sanz - El Alma Al Aire
DYEAR=2000
DGENRE=Latin
TTITLE0=Cuando Nadie Me Ve
TTITLE1=Hay Un Universo De Pequeñas Cosas
TTITLE2=Quisiera Ser
TTITLE3=Para Que Me Quieras
TTITLE4=Llega, Llego Soledad
TTITLE5=El Alma Al Aire
TTITLE6=Me Ire
TTITLE7=Hicimos Un Trato
TTITLE8=Tiene Que Ser Pecado
TTITLE9=Silencio
EXTD=YEAR: 2000
EXTT0=
EXTT1=
EXTT2=
EXTT3=
EXTT4=
EXTT5=
EXTT6=
EXTT7=
EXTT8=
EXTT9=
PLAYORDER=
